<svg width="13" height="13" viewBox="0 0 13 13" fill="none" xmlns="http://www.w3.org/2000/svg">
<g clip-path="url(#clip0_140_952)">
<path d="M12.8461 6.49998V6.50003C12.8461 10.0003 9.99845 12.847 6.49917 12.847C2.99991 12.847 0.153227 10.0003 0.153227 6.50003C0.153227 3.00076 2.9999 0.154089 6.49917 0.154089C9.9985 0.154089 12.8471 3.00082 12.8461 6.49998Z" fill="white" stroke="black" stroke-width="0.3"/>
<mask id="mask0_140_952" style="mask-type:luminance" maskUnits="userSpaceOnUse" x="0" y="0" width="13" height="13">
<path d="M6.49917 0.00408936C2.91706 0.00408936 0.00322723 2.91792 0.00322723 6.50003C0.00322723 10.0832 2.91706 12.997 6.49917 12.997C10.0813 12.997 12.9961 10.0832 12.9961 6.50003C12.9971 2.91792 10.0813 0.00408936 6.49917 0.00408936Z" fill="white"/>
</mask>
<g mask="url(#mask0_140_952)">
<mask id="mask1_140_952" style="mask-type:luminance" maskUnits="userSpaceOnUse" x="-1" y="-1" width="15" height="15">
<path d="M13.4083 6.50002C13.4083 10.3157 10.3147 13.4083 6.49899 13.4083C2.6843 13.4083 -0.409294 10.3147 -0.409294 6.50002C-0.409294 2.68431 2.68328 -0.408264 6.49899 -0.408264C10.3157 -0.408264 13.4083 2.68431 13.4083 6.50002Z" fill="white"/>
</mask>
<g mask="url(#mask1_140_952)">
<path d="M12.0311 2.37555C11.9945 2.37555 11.957 2.36438 11.9265 2.34203C11.6553 2.15313 11.3709 2.24758 11.3577 2.25164C11.2623 2.28414 11.1556 2.23336 11.1221 2.13789C11.0886 2.04141 11.1384 1.93578 11.2338 1.90227C11.2501 1.89617 11.5761 1.78242 11.9377 1.92969C12.1225 1.58539 12.4465 1.46453 12.4617 1.45844C12.5582 1.42391 12.6648 1.47367 12.6984 1.57016C12.7329 1.66563 12.6852 1.77125 12.5887 1.8068C12.5775 1.81188 12.2972 1.92157 12.2098 2.23946C12.1936 2.29735 12.1509 2.34407 12.0941 2.36539C12.0738 2.3725 12.0534 2.37555 12.0311 2.37555ZM12.3713 3.315C12.3338 3.315 12.2972 3.30383 12.2657 3.28149C11.9956 3.09258 11.7102 3.18703 11.699 3.1911C11.6035 3.2236 11.4969 3.17383 11.4634 3.07735C11.4298 2.98086 11.4776 2.87625 11.5741 2.84172C11.5903 2.83664 11.9163 2.72188 12.2779 2.86914C12.4627 2.52485 12.7857 2.40399 12.802 2.39789C12.8984 2.36336 13.0051 2.41313 13.0396 2.50961C13.0741 2.60508 13.0254 2.71071 12.9299 2.74625C12.9147 2.75235 12.6384 2.86203 12.5521 3.17891C12.5359 3.2368 12.4932 3.28352 12.4363 3.30485C12.414 3.31196 12.3927 3.315 12.3713 3.315ZM12.3957 4.25953C12.3764 4.25953 12.3571 4.25649 12.3378 4.25141C12.2809 4.23211 12.2363 4.18742 12.219 4.12852C12.1215 3.81266 11.831 3.71008 11.828 3.70906C11.8049 3.70148 11.7835 3.68942 11.7651 3.67357C11.7467 3.65772 11.7316 3.63839 11.7206 3.6167C11.7097 3.595 11.7031 3.57136 11.7013 3.54713C11.6995 3.52289 11.7025 3.49854 11.7102 3.47547C11.7416 3.37797 11.8463 3.32516 11.9438 3.35664C11.96 3.36172 12.287 3.47242 12.482 3.81063C12.8395 3.65321 13.1686 3.75578 13.1848 3.76188C13.2823 3.79336 13.3362 3.89797 13.3037 3.99547C13.2722 4.09297 13.1686 4.1468 13.0711 4.1143C13.0569 4.11024 12.7705 4.02594 12.5064 4.22399C12.4739 4.24735 12.4353 4.25953 12.3957 4.25953ZM12.0859 5.21016C12.0464 5.20982 12.008 5.19695 11.9763 5.17341C11.9445 5.14987 11.921 5.11686 11.9092 5.07914C11.8117 4.76328 11.5294 4.66274 11.5172 4.65867C11.4217 4.62516 11.3689 4.52156 11.4014 4.42508C11.4339 4.3286 11.5375 4.27578 11.634 4.30727C11.6502 4.31235 11.9783 4.42305 12.1723 4.76125C12.5298 4.60383 12.8588 4.70742 12.8761 4.7125C12.9726 4.74399 13.0264 4.84961 12.9939 4.9461C12.9624 5.0436 12.8588 5.09742 12.7623 5.06492C12.7471 5.06086 12.4607 4.97758 12.1977 5.17461C12.1652 5.19696 12.1256 5.21016 12.0859 5.21016ZM12.1702 6.35985C12.1063 6.35985 12.0423 6.32633 12.0098 6.26641C12.0016 6.25321 11.8473 5.99828 11.5202 5.96375C11.4603 5.95766 11.4075 5.92313 11.3781 5.87032C11.3496 5.8175 11.3466 5.75453 11.373 5.69969C11.5152 5.40008 11.372 5.12789 11.3699 5.12586C11.3191 5.03649 11.3516 4.92274 11.441 4.87399C11.5314 4.82321 11.6441 4.85571 11.6929 4.94508C11.701 4.96032 11.8676 5.26399 11.7833 5.64282C12.152 5.76875 12.3246 6.06836 12.3327 6.0836C12.3825 6.17297 12.351 6.28571 12.2616 6.33547C12.2322 6.35274 12.1997 6.35985 12.1702 6.35985ZM11.2978 6.84836C11.2338 6.84836 11.1709 6.81485 11.1373 6.75492C11.1282 6.74172 10.9748 6.4868 10.6478 6.45227C10.6184 6.44879 10.5901 6.43843 10.5654 6.42202C10.5407 6.40561 10.5203 6.38361 10.5056 6.35781C10.4762 6.30602 10.4741 6.24102 10.5006 6.18821C10.6427 5.8886 10.4995 5.61641 10.4985 5.61438C10.4477 5.52602 10.4792 5.41125 10.5696 5.3625C10.659 5.31172 10.7717 5.34422 10.8215 5.43258C10.8306 5.44782 10.9962 5.75047 10.9109 6.13133C11.2795 6.25727 11.4522 6.55688 11.4603 6.57211C11.5101 6.66149 11.4786 6.77321 11.3892 6.82399C11.3608 6.84125 11.3293 6.84836 11.2978 6.84836ZM10.4274 7.33789C10.3634 7.33789 10.2995 7.30438 10.2649 7.24446C10.2578 7.23125 10.1045 6.97532 9.77742 6.9418C9.7175 6.93571 9.66368 6.90016 9.63422 6.84836C9.60477 6.79555 9.60274 6.73156 9.62914 6.67774C9.77133 6.37813 9.62711 6.10594 9.6261 6.10391C9.57532 6.01453 9.60782 5.90078 9.69719 5.85203C9.78657 5.80227 9.90032 5.83375 9.94907 5.92313C9.95719 5.93836 10.1238 6.24102 10.0384 6.62188C10.4081 6.74781 10.5798 7.04742 10.5889 7.06164C10.6387 7.15102 10.6062 7.26375 10.5178 7.31453C10.4884 7.33078 10.4569 7.33789 10.4274 7.33789ZM9.6068 7.80305C9.54789 7.80305 9.49 7.77461 9.45344 7.72282C9.44633 7.71164 9.27063 7.46891 8.94055 7.46282C8.88063 7.4618 8.82477 7.43235 8.79024 7.38157C8.75672 7.3318 8.74961 7.26883 8.76993 7.21196C8.88672 6.90117 8.72016 6.64321 8.71813 6.64117C8.66024 6.55586 8.68258 6.44008 8.76789 6.38422C8.85219 6.32633 8.96797 6.34867 9.02586 6.43297C9.03602 6.44719 9.22594 6.73461 9.17414 7.12156C9.55297 7.215 9.75 7.49836 9.76016 7.5136C9.81805 7.59789 9.79672 7.71266 9.71243 7.77055C9.67789 7.79289 9.64133 7.80305 9.6068 7.80305ZM8.77907 8.36469C8.72016 8.36469 8.66227 8.33727 8.62571 8.28446C8.61758 8.27125 8.44188 8.03055 8.11383 8.02446C8.05289 8.02344 7.99704 7.99297 7.96352 7.94321C7.92899 7.89344 7.92188 7.83047 7.94321 7.7736C8.05899 7.46383 7.89243 7.20485 7.89039 7.2018C7.87676 7.18167 7.86723 7.15905 7.86235 7.13523C7.85748 7.11141 7.85735 7.08687 7.86197 7.063C7.86659 7.03913 7.87588 7.01641 7.88929 6.99613C7.90271 6.97586 7.92 6.95843 7.94016 6.94485C8.02446 6.88797 8.14125 6.9093 8.19711 6.99461C8.20727 7.00782 8.39922 7.29727 8.34641 7.68321C8.72524 7.77664 8.92227 8.06102 8.93243 8.07422C8.9893 8.15953 8.96797 8.27532 8.88266 8.33117C8.85265 8.35323 8.81631 8.36498 8.77907 8.36469ZM7.95235 8.92633C7.89344 8.92633 7.83555 8.89891 7.8 8.8461C7.79086 8.83289 7.61516 8.59321 7.28711 8.58711C7.22719 8.5861 7.17133 8.55563 7.1368 8.50688C7.10227 8.4561 7.09516 8.39313 7.11649 8.33727C7.23328 8.0275 7.06571 7.76852 7.06469 7.76547C7.0068 7.68016 7.02914 7.56641 7.11446 7.50852C7.15507 7.48115 7.20484 7.47092 7.25296 7.48005C7.30107 7.48918 7.34364 7.51693 7.37141 7.55727C7.38157 7.57149 7.5725 7.85992 7.51969 8.24586C7.89852 8.3393 8.09555 8.62367 8.10571 8.63789C8.1636 8.72219 8.14125 8.83696 8.05594 8.89485C8.02446 8.91516 7.98891 8.92633 7.95235 8.92633ZM6.64828 9.30617C6.62188 9.30617 6.59344 9.30008 6.56805 9.28891C6.51422 9.2625 6.47563 9.21172 6.46649 9.15282C6.41063 8.8268 6.14352 8.69071 6.13133 8.68461C6.03993 8.63891 6.00133 8.52821 6.04704 8.43782C6.09172 8.34539 6.20141 8.30782 6.29282 8.35047C6.30907 8.35758 6.61883 8.50992 6.76813 8.87047C7.14391 8.75977 7.45672 8.90602 7.47196 8.91313C7.56438 8.9568 7.60399 9.0675 7.5593 9.15992C7.51563 9.25133 7.40594 9.29094 7.31352 9.24828C7.30032 9.24219 7.02813 9.12133 6.73969 9.28281C6.71024 9.29805 6.67977 9.30617 6.64828 9.30617ZM6.21766 10.208C6.19024 10.208 6.16282 10.203 6.13844 10.1908C6.0836 10.1644 6.045 10.1146 6.03586 10.0557C5.98 9.72969 5.71289 9.59258 5.70071 9.58649C5.67897 9.57569 5.65956 9.56071 5.64361 9.54241C5.62766 9.52411 5.61547 9.50284 5.60774 9.47983C5.6 9.45682 5.59688 9.43251 5.59854 9.40829C5.6002 9.38407 5.60662 9.36041 5.61743 9.33867C5.6611 9.24727 5.77079 9.20867 5.86321 9.25336C5.87844 9.26047 6.18922 9.41282 6.33852 9.77336C6.71125 9.66266 7.0261 9.80891 7.04133 9.81602C7.13477 9.85969 7.17336 9.97039 7.12969 10.0628C7.08602 10.1552 6.97532 10.1948 6.88391 10.1512C6.86969 10.1461 6.5975 10.0242 6.31008 10.1857C6.28148 10.2004 6.2498 10.208 6.21766 10.208ZM5.78703 11.1099C5.75961 11.1099 5.73219 11.1038 5.7068 11.0916C5.65297 11.0663 5.61438 11.0155 5.60321 10.9556C5.54836 10.6306 5.28024 10.4934 5.27008 10.4884C5.24825 10.4777 5.22875 10.4627 5.2127 10.4445C5.19664 10.4262 5.18434 10.405 5.17651 10.3819C5.16868 10.3589 5.16547 10.3346 5.16706 10.3103C5.16865 10.2861 5.17502 10.2624 5.18579 10.2406C5.23047 10.1502 5.34016 10.1105 5.43157 10.1552C5.4468 10.1634 5.75758 10.3147 5.90688 10.6752C6.28164 10.5655 6.59547 10.7108 6.61071 10.7189C6.65502 10.7399 6.68917 10.7777 6.70564 10.8239C6.72212 10.87 6.71957 10.9209 6.69856 10.9652C6.67755 11.0095 6.6398 11.0437 6.59361 11.0601C6.54742 11.0766 6.49658 11.0741 6.45227 11.0531C6.43907 11.047 6.16586 10.9271 5.87844 11.0876C5.85028 11.1025 5.81888 11.1101 5.78703 11.1099ZM5.6875 12.0524C5.64079 12.0524 5.59508 12.0341 5.55954 12.0016C5.31782 11.7741 5.01618 11.828 5.01211 11.829C4.91157 11.8493 4.81407 11.7843 4.79375 11.6848C4.77344 11.5842 4.83844 11.4867 4.93899 11.4664C4.95625 11.4634 5.29547 11.3973 5.63164 11.5954C5.86321 11.2826 6.20243 11.2095 6.21868 11.2064C6.26661 11.1972 6.31625 11.2072 6.35686 11.2342C6.39747 11.2613 6.42578 11.3033 6.43566 11.3511C6.44554 11.3989 6.4362 11.4487 6.40966 11.4897C6.38311 11.5306 6.3415 11.5595 6.29383 11.57C6.27961 11.573 5.98813 11.6411 5.8561 11.9427C5.84191 11.9756 5.81834 12.0035 5.78835 12.023C5.75836 12.0425 5.72328 12.0528 5.6875 12.0524ZM5.88555 13.0315C5.83985 13.0315 5.79313 13.0132 5.7586 12.9817C5.51688 12.7542 5.21422 12.8081 5.21118 12.8091C5.11063 12.8294 5.01313 12.7644 4.99282 12.6638C4.9725 12.5633 5.03649 12.4648 5.13805 12.4455C5.1543 12.4424 5.49454 12.3764 5.83071 12.5745C6.06227 12.2616 6.40047 12.1895 6.41774 12.1855C6.46609 12.1756 6.51636 12.1854 6.5575 12.2127C6.59865 12.2399 6.62728 12.2824 6.63711 12.3307C6.64694 12.3791 6.63717 12.4293 6.60993 12.4705C6.58269 12.5116 6.54023 12.5402 6.49188 12.5501C6.47461 12.5531 6.18618 12.6232 6.05516 12.9218C6.03079 12.9777 5.98102 13.0173 5.92211 13.0295C5.91094 13.0305 5.89875 13.0315 5.88555 13.0315ZM6.08563 14.0105C6.03789 14.0105 5.99321 13.9923 5.95766 13.9598C5.71594 13.7323 5.4143 13.7861 5.41024 13.7871C5.31071 13.8064 5.21321 13.7424 5.19289 13.6419C5.17258 13.5413 5.23657 13.4438 5.33711 13.4235C5.35438 13.4205 5.69461 13.3545 6.02977 13.5525C6.26235 13.2397 6.60055 13.1676 6.61782 13.1635C6.71735 13.1442 6.81586 13.2082 6.83618 13.3088C6.85547 13.4093 6.7925 13.5058 6.69196 13.5281C6.67672 13.5312 6.38625 13.5992 6.25422 13.8998C6.23086 13.9557 6.18008 13.9953 6.12118 14.0075C6.11 14.0105 6.0968 14.0105 6.08563 14.0105ZM0.928285 9.81907C0.897817 9.81907 0.868363 9.81297 0.840942 9.79672C0.825707 9.7886 0.523051 9.62 0.392035 9.25336C0.0121915 9.34375 -0.293512 9.18227 -0.308746 9.17414C-0.351808 9.15067 -0.3838 9.11108 -0.3977 9.06405C-0.4116 9.01702 -0.406272 8.96639 -0.382887 8.92328C-0.334137 8.83289 -0.223433 8.79938 -0.133043 8.84813C-0.121871 8.85422 0.14727 8.9893 0.441801 8.84305C0.495629 8.81563 0.558598 8.81766 0.612426 8.8461C0.665238 8.87555 0.700785 8.92735 0.707895 8.98727C0.746488 9.31532 1.0075 9.46563 1.01766 9.47071C1.10602 9.52149 1.13852 9.63422 1.08977 9.72258C1.05524 9.78453 0.99227 9.81907 0.928285 9.81907ZM1.4036 8.94055C1.37313 8.94055 1.34368 8.93242 1.31524 8.91821C1.3 8.91008 0.997348 8.7425 0.867348 8.37586C0.48852 8.46727 0.181801 8.30578 0.166566 8.29664C0.145156 8.28511 0.126241 8.26946 0.110911 8.25058C0.095581 8.2317 0.0841399 8.20998 0.0772476 8.18666C0.0703552 8.16333 0.0681479 8.13888 0.070753 8.1147C0.0733581 8.09052 0.080724 8.0671 0.0924259 8.04578C0.14016 7.95539 0.251879 7.92188 0.34227 7.97063C0.355473 7.97672 0.622582 8.1118 0.916098 7.96555C0.970942 7.93813 1.03391 7.94016 1.08672 7.9686C1.14055 7.99703 1.1761 8.04985 1.18321 8.10977C1.2218 8.43781 1.4818 8.58813 1.49297 8.59422C1.58133 8.645 1.61383 8.75774 1.56508 8.8461C1.53157 8.90602 1.4686 8.94055 1.4036 8.94055ZM1.87993 8.06203C1.84946 8.06203 1.82 8.05391 1.79157 8.03969C1.77633 8.03157 1.47368 7.86399 1.34368 7.49633C0.963832 7.58672 0.658129 7.42524 0.642895 7.41813C0.621543 7.40654 0.602686 7.39085 0.587401 7.37196C0.572117 7.35308 0.560706 7.33137 0.55382 7.30807C0.546934 7.28477 0.544708 7.26034 0.547271 7.23618C0.549834 7.21202 0.557134 7.1886 0.568754 7.16727C0.616488 7.07688 0.728207 7.04438 0.818598 7.09211C0.830785 7.09821 1.09891 7.23328 1.39243 7.08703C1.44727 7.06063 1.51024 7.06164 1.56305 7.09008C1.61688 7.11852 1.65243 7.17133 1.65954 7.23024C1.69813 7.55828 1.95813 7.7086 1.9693 7.71469C2.05664 7.76446 2.09016 7.87719 2.04141 7.96555C2.00789 8.0275 1.94493 8.06203 1.87993 8.06203ZM2.35625 7.18352C2.32579 7.18352 2.29633 7.17539 2.26789 7.16117C2.25266 7.15305 1.95 6.98547 1.82 6.61782C1.44016 6.70922 1.13446 6.54774 1.11922 6.53961C1.02883 6.48985 0.996332 6.37711 1.04508 6.28774C1.09282 6.19836 1.20454 6.16485 1.29493 6.21258C1.30711 6.21969 1.57524 6.35375 1.86875 6.20852C1.9236 6.1811 1.98657 6.18313 2.03938 6.21157C2.09321 6.23899 2.12875 6.29282 2.13586 6.35172C2.17446 6.67977 2.43446 6.83008 2.44563 6.83617C2.53297 6.88594 2.56649 6.99766 2.51774 7.08703C2.48422 7.14899 2.42024 7.18352 2.35625 7.18352ZM2.61829 5.97188C2.61219 5.97188 2.60508 5.97188 2.59899 5.97086C2.58172 5.96985 2.23743 5.93024 1.97743 5.64078C1.66157 5.8693 1.31625 5.8368 1.30102 5.83578C1.19946 5.82461 1.12532 5.73422 1.13649 5.63164C1.14766 5.53008 1.23907 5.45797 1.33961 5.4661C1.35586 5.46813 1.65141 5.48844 1.86875 5.24164C1.90836 5.19594 1.96727 5.17258 2.02719 5.17867C2.0861 5.18477 2.13993 5.2193 2.16836 5.27211C2.33086 5.56055 2.62743 5.59914 2.64063 5.60117C2.74118 5.61336 2.8143 5.70578 2.80414 5.80633C2.79094 5.9018 2.71172 5.97188 2.61829 5.97188ZM2.72188 4.97758C2.71579 4.97758 2.70868 4.97656 2.70258 4.97656C2.68532 4.97453 2.34102 4.93492 2.08102 4.64547C1.76414 4.875 1.41985 4.84149 1.40461 4.84047C1.30305 4.8293 1.22891 4.73789 1.23907 4.63633C1.25024 4.53578 1.33961 4.46367 1.44219 4.47078C1.45743 4.47282 1.75399 4.49414 1.97133 4.24633C2.00993 4.20164 2.06883 4.17727 2.12977 4.18438C2.18868 4.19149 2.2425 4.225 2.27094 4.27781C2.43243 4.56625 2.73 4.60586 2.74321 4.60688C2.79184 4.61299 2.83615 4.63787 2.8667 4.67619C2.89725 4.71452 2.91161 4.76327 2.90672 4.81203C2.89454 4.9075 2.81532 4.97758 2.72188 4.97758ZM2.82649 3.9843C2.82039 3.9843 2.81329 3.9843 2.80719 3.98328C2.78993 3.98125 2.44563 3.94164 2.18461 3.65219C1.86977 3.88172 1.52547 3.84922 1.50821 3.84719C1.40664 3.83602 1.3325 3.74563 1.34266 3.64305C1.35383 3.5425 1.44321 3.46938 1.54477 3.4775C1.56 3.47953 1.85758 3.50086 2.07493 3.25407C2.11454 3.20836 2.17344 3.185 2.23336 3.19211C2.29227 3.19821 2.3461 3.23375 2.37454 3.28555C2.53602 3.57399 2.8336 3.6136 2.8468 3.61461C2.89543 3.62073 2.93974 3.6456 2.97029 3.68393C3.00084 3.72225 3.0152 3.771 3.01032 3.81977C2.99914 3.91422 2.91891 3.9843 2.82649 3.9843ZM2.98696 3.22563C2.96157 3.22563 2.93516 3.21953 2.91079 3.20836C2.89454 3.20227 2.58274 3.05399 2.42735 2.69547C2.05664 2.81227 1.73977 2.6711 1.72352 2.66297C1.63008 2.62031 1.58946 2.51063 1.63211 2.41719C1.67477 2.32477 1.78344 2.28414 1.87688 2.32578C1.8911 2.33086 2.16532 2.44664 2.44969 2.28313C2.47519 2.26764 2.50417 2.25878 2.53397 2.25736C2.56377 2.25595 2.59346 2.26201 2.62032 2.275C2.67516 2.29938 2.71477 2.35016 2.72493 2.40906C2.78586 2.73406 3.055 2.86711 3.06618 2.87219C3.1586 2.91586 3.19821 3.02555 3.15555 3.11797C3.12305 3.18602 3.05704 3.22563 2.98696 3.22563ZM3.40438 2.31766C3.37899 2.31766 3.35258 2.31258 3.32719 2.30039C3.31196 2.2943 2.99914 2.14602 2.84477 1.78852C2.47204 1.9043 2.15618 1.76313 2.14094 1.75703C2.1188 1.7469 2.09886 1.73251 2.08228 1.71467C2.0657 1.69684 2.0528 1.67591 2.04431 1.65308C2.03582 1.63026 2.03191 1.60598 2.03281 1.58165C2.03371 1.55731 2.03939 1.53339 2.04954 1.51125C2.09118 1.41883 2.20086 1.37821 2.2943 1.41985C2.30954 1.42594 2.58274 1.54172 2.86711 1.37719C2.91891 1.34672 2.98289 1.34367 3.03774 1.36906C3.09258 1.39344 3.13118 1.44422 3.14235 1.50313C3.20227 1.82813 3.47141 1.96117 3.4836 1.96625C3.575 2.00992 3.61461 2.11961 3.57196 2.21203C3.54047 2.27805 3.47344 2.31766 3.40438 2.31766ZM3.8218 1.40867C3.79641 1.40867 3.76899 1.4036 3.74461 1.39242C3.72938 1.38531 3.41657 1.23703 3.26219 0.879534C2.89047 0.995315 2.5736 0.854143 2.55735 0.847034C2.5129 0.826266 2.4784 0.788851 2.4613 0.742867C2.4442 0.696882 2.44586 0.646018 2.46594 0.601252C2.5086 0.507815 2.61829 0.46719 2.71071 0.508831C2.72696 0.51594 3.00016 0.630706 3.28454 0.466174C3.33633 0.435705 3.40032 0.432659 3.45414 0.458049C3.51 0.48344 3.5486 0.533206 3.55875 0.593127C3.61969 0.917112 3.88883 1.05016 3.90102 1.05524C3.99243 1.09891 4.03204 1.20961 3.98836 1.30102C3.95789 1.36907 3.89086 1.40867 3.8218 1.40867ZM4.06555 0.831799C4.00563 0.831799 3.94571 0.80133 3.91016 0.747502C3.9 0.733284 3.71516 0.441799 3.77508 0.0558617C3.39829 -0.0446854 3.20633 -0.333123 3.19719 -0.347341C3.14133 -0.432654 3.16571 -0.54742 3.25204 -0.603279C3.27223 -0.616583 3.29485 -0.625772 3.31861 -0.630318C3.34236 -0.634864 3.36677 -0.634679 3.39046 -0.629773C3.41414 -0.624867 3.43662 -0.615337 3.45661 -0.601728C3.4766 -0.588119 3.49371 -0.570699 3.50696 -0.550467C3.5161 -0.536248 3.68672 -0.293513 4.01375 -0.281326C4.07469 -0.279295 4.12954 -0.246795 4.16305 -0.197029C4.19555 -0.147263 4.20164 -0.0832789 4.18032 -0.0274196C4.05844 0.280315 4.21891 0.542346 4.22094 0.544377C4.2768 0.630705 4.25243 0.745471 4.1661 0.801331C4.13563 0.821643 4.10008 0.831799 4.06555 0.831799ZM4.90344 0.286409C4.8425 0.286409 4.7836 0.25594 4.74805 0.202112C4.73789 0.187893 4.55305 -0.104607 4.61297 -0.489529C4.23618 -0.590076 4.04422 -0.877498 4.03508 -0.892732C3.97922 -0.97906 4.0036 -1.09383 4.08891 -1.14969C4.17422 -1.20554 4.29 -1.18219 4.34485 -1.09586C4.35399 -1.08265 4.52461 -0.83992 4.85164 -0.826717C4.91157 -0.824685 4.96743 -0.793201 4.99993 -0.743435C5.03344 -0.69367 5.03954 -0.629685 5.01719 -0.573826C4.89532 -0.265076 5.0568 -0.00304461 5.05782 2.38419e-06C5.11368 0.0853148 5.09032 0.201096 5.00399 0.25594C4.97352 0.276252 4.93797 0.286409 4.90344 0.286409ZM5.64079 -0.228513C5.57071 -0.228513 5.50368 -0.269138 5.47219 -0.338201C5.4661 -0.353435 5.32696 -0.67031 5.44477 -1.04203C5.08829 -1.19945 4.94305 -1.51328 4.93594 -1.52851C4.8943 -1.62195 4.93594 -1.73265 5.02938 -1.77429C5.12282 -1.81594 5.23149 -1.77429 5.27414 -1.68187C5.28024 -1.66765 5.41125 -1.39953 5.73321 -1.33758C5.79313 -1.3264 5.84289 -1.28781 5.86727 -1.23195C5.89164 -1.17609 5.8886 -1.11312 5.85813 -1.06234C5.69055 -0.776951 5.80633 -0.500701 5.81039 -0.488513C5.85102 -0.395076 5.80836 -0.285388 5.71493 -0.244763C5.69157 -0.234607 5.66618 -0.228513 5.64079 -0.228513ZM6.5 -0.485466C6.41875 -0.485466 6.34461 -0.539295 6.32227 -0.62156C6.31821 -0.63781 6.22883 -0.971951 6.40352 -1.32031C6.07547 -1.53156 5.98 -1.86367 5.97594 -1.87992C5.94852 -1.97844 6.00743 -2.08101 6.10594 -2.10844C6.20344 -2.13586 6.30602 -2.07695 6.33344 -1.97945C6.3375 -1.96625 6.42586 -1.67984 6.73461 -1.56914C6.76258 -1.55889 6.78769 -1.5421 6.80784 -1.52017C6.82799 -1.49825 6.84261 -1.47181 6.85046 -1.44308C6.85831 -1.41435 6.85918 -1.38416 6.85298 -1.35503C6.84679 -1.3259 6.83371 -1.29867 6.81485 -1.27562C6.60461 -1.0207 6.67875 -0.721092 6.67977 -0.71906C6.70618 -0.620545 6.64828 -0.517967 6.54977 -0.490545C6.53352 -0.487498 6.51727 -0.485466 6.5 -0.485466Z" fill="#5D5FEF"/>
</g>
</g>
</g>
<defs>
<clipPath id="clip0_140_952">
<rect width="13" height="13" fill="white"/>
</clipPath>
</defs>
</svg>
